HIERARCHY
ROOT hip
{
  OFFSET 5.51535 103.731 -2.80141
  CHANNELS 6 Xposition Yposition Zposition Zrotation Xrotation Yrotation
  JOINT abdomen
  {
    OFFSET 0 -1.186 -1.5018
    CHANNELS 6 Xposition Yposition Zposition Zrotation Xrotation Yrotation
    JOINT abdomen2
    {
      OFFSET 0 9.964 0.2134
      CHANNELS 6 Xposition Yposition Zposition Zrotation Xrotation Yrotation
      JOINT chest
      {
        OFFSET 0 13.134 -3.2573
        CHANNELS 6 Xposition Yposition Zposition Zrotation Xrotation Yrotation
        JOINT neck
        {
          OFFSET 0 20.686 -1.6905
          CHANNELS 6 Xposition Yposition Zposition Zrotation Xrotation Yrotation
          JOINT head
          {
            OFFSET 0 7.23801 -0.1237
            CHANNELS 6 Xposition Yposition Zposition Zrotation Xrotation Yrotation
            End Site
            {
              OFFSET 0 0 0
            }
          }
        }
        JOINT lCollar
        {
          OFFSET 1.7069 20.075 5.0056
          CHANNELS 6 Xposition Yposition Zposition Zrotation Xrotation Yrotation
          JOINT lShldr
          {
            OFFSET 13.6458 -0.0470195 -4.849
            CHANNELS 6 Xposition Yposition Zposition Zrotation Xrotation Yrotation
            JOINT lForeArm
            {
              OFFSET 28.3255 -0.97589 2.2888
              CHANNELS 6 Xposition Yposition Zposition Zrotation Xrotation Yrotation
              JOINT lHand
              {
                OFFSET 22.1583 -0.529998 10.8316
                CHANNELS 6 Xposition Yposition Zposition Zrotation Xrotation Yrotation
                JOINT lThumb1
                {
                  OFFSET 0.786 0.111997 2.5817
                  CHANNELS 6 Xposition Yposition Zposition Zrotation Xrotation Yrotation
                  JOINT lThumb2
                  {
                    OFFSET 0.360097 -0.877999 4.2331
                    CHANNELS 6 Xposition Yposition Zposition Zrotation Xrotation Yrotation
                    JOINT lThumb2_End
                    {
                      OFFSET 1.8127 -1.21601 2.2227
                      CHANNELS 6 Xposition Yposition Zposition Zrotation Xrotation Yrotation
                      End Site
                      {
                        OFFSET 0.0180981 -0.012195 0.0222007
                      }
                    }
                  }
                }
                JOINT lCarpal1
                {
                  OFFSET 0.9571 1.114 1.7695
                  CHANNELS 6 Xposition Yposition Zposition Zrotation Xrotation Yrotation
                  JOINT lIndex1
                  {
                    OFFSET 4.12461 0.486992 4.1451
                    CHANNELS 6 Xposition Yposition Zposition Zrotation Xrotation Yrotation
                    JOINT lIndex2
                    {
                      OFFSET 3.4052 -1.45401 2.7682
                      CHANNELS 6 Xposition Yposition Zposition Zrotation Xrotation Yrotation
                      JOINT lIndex2_End
                      {
                        OFFSET 1.45309 -1.79499 1.2713
                        CHANNELS 6 Xposition Yposition Zposition Zrotation Xrotation Yrotation
                        End Site
                        {
                          OFFSET 0.0144979 -0.0179083 0.0126995
                        }
                      }
                    }
                  }
                  JOINT lMid1
                  {
                    OFFSET 5.6954 0.209987 2.1184
                    CHANNELS 6 Xposition Yposition Zposition Zrotation Xrotation Yrotation
                    JOINT lMid2
                    {
                      OFFSET 3.9766 -1.53999 2.3863
                      CHANNELS 6 Xposition Yposition Zposition Zrotation Xrotation Yrotation
                      JOINT lMid2_End
                      {
                        OFFSET 1.4042 -1.926 1.125
                        CHANNELS 6 Xposition Yposition Zposition Zrotation Xrotation Yrotation
                        End Site
                        {
                          OFFSET 0.013999 -0.0193044 0.011301
                        }
                      }
                    }
                  }
                }
                JOINT lCarpal2
                {
                  OFFSET 2.0956 0.66 -0.3894
                  CHANNELS 6 Xposition Yposition Zposition Zrotation Xrotation Yrotation
                  JOINT lRing1
                  {
                    OFFSET 5.0395 -0.090013 2.4971
                    CHANNELS 6 Xposition Yposition Zposition Zrotation Xrotation Yrotation
                    JOINT lRing2
                    {
                      OFFSET 3.7921 -1.55199 1.4806
                      CHANNELS 6 Xposition Yposition Zposition Zrotation Xrotation Yrotation
                      JOINT lRing2_End
                      {
                        OFFSET 1.4655 -1.808 0.9609
                        CHANNELS 6 Xposition Yposition Zposition Zrotation Xrotation Yrotation
                        End Site
                        {
                          OFFSET 0.0147015 -0.0181014 0.00959957
                        }
                      }
                    }
                  }
                  JOINT lPinky1
                  {
                    OFFSET 4.9141 -1.269 0.3591
                    CHANNELS 6 Xposition Yposition Zposition Zrotation Xrotation Yrotation
                    JOINT lPinky2
                    {
                      OFFSET 3.1477 -1.685 0.8462
                      CHANNELS 6 Xposition Yposition Zposition Zrotation Xrotation Yrotation
                      JOINT lPinky2_End
                      {
                        OFFSET 0.805498 -1.58501 0.795499
                        CHANNELS 6 Xposition Yposition Zposition Zrotation Xrotation Yrotation
                        End Site
                        {
                          OFFSET 0.00809703 -0.0157944 0.00799848
                        }
                      }
                    }
                  }
                }
              }
            }
          }
        }
        JOINT rCollar
        {
          OFFSET -1.7069 20.075 5.0056
          CHANNELS 6 Xposition Yposition Zposition Zrotation Xrotation Yrotation
          JOINT rShldr
          {
            OFFSET -13.6458 -0.0470107 -4.849
            CHANNELS 6 Xposition Yposition Zposition Zrotation Xrotation Yrotation
            JOINT rForeArm
            {
              OFFSET -28.3255 -0.975895 2.2888
              CHANNELS 6 Xposition Yposition Zposition Zrotation Xrotation Yrotation
              JOINT rHand
              {
                OFFSET -22.1583 -0.530007 10.8316
                CHANNELS 6 Xposition Yposition Zposition Zrotation Xrotation Yrotation
                JOINT rThumb1
                {
                  OFFSET -0.785997 0.112005 2.5817
                  CHANNELS 6 Xposition Yposition Zposition Zrotation Xrotation Yrotation
                  JOINT rThumb2
                  {
                    OFFSET -0.360106 -0.877994 4.2331
                    CHANNELS 6 Xposition Yposition Zposition Zrotation Xrotation Yrotation
                    JOINT rThumb2_End
                    {
                      OFFSET -1.8127 -1.216 2.2227
                      CHANNELS 6 Xposition Yposition Zposition Zrotation Xrotation Yrotation
                      End Site
                      {
                        OFFSET -0.0180972 -0.0121973 0.0222005
                      }
                    }
                  }
                }
                JOINT rCarpal1
                {
                  OFFSET -0.9571 1.114 1.7695
                  CHANNELS 6 Xposition Yposition Zposition Zrotation Xrotation Yrotation
                  JOINT rIndex1
                  {
                    OFFSET -4.1246 0.487011 4.1451
                    CHANNELS 6 Xposition Yposition Zposition Zrotation Xrotation Yrotation
                    JOINT rIndex2
                    {
                      OFFSET -3.4052 -1.45401 2.7682
                      CHANNELS 6 Xposition Yposition Zposition Zrotation Xrotation Yrotation
                      JOINT rIndex2_End
                      {
                        OFFSET -1.4531 -1.795 1.2713
                        CHANNELS 6 Xposition Yposition Zposition Zrotation Xrotation Yrotation
                        End Site
                        {
                          OFFSET -0.0145077 -0.0180048 0.0127017
                        }
                      }
                    }
                  }
                  JOINT rMid1
                  {
                    OFFSET -5.6954 0.210002 2.1184
                    CHANNELS 6 Xposition Yposition Zposition Zrotation Xrotation Yrotation
                    JOINT rMid2
                    {
                      OFFSET -3.9766 -1.54 2.3863
                      CHANNELS 6 Xposition Yposition Zposition Zrotation Xrotation Yrotation
                      JOINT rMid2_End
                      {
                        OFFSET -1.4042 -1.926 1.125
                        CHANNELS 6 Xposition Yposition Zposition Zrotation Xrotation Yrotation
                        End Site
                        {
                          OFFSET -0.0139948 -0.0192916 0.0112994
                        }
                      }
                    }
                  }
                }
                JOINT rCarpal2
                {
                  OFFSET -2.0956 0.66 -0.3894
                  CHANNELS 6 Xposition Yposition Zposition Zrotation Xrotation Yrotation
                  JOINT rRing1
                  {
                    OFFSET -5.03951 -0.0899879 2.4971
                    CHANNELS 6 Xposition Yposition Zposition Zrotation Xrotation Yrotation
                    JOINT rRing2
                    {
                      OFFSET -3.7921 -1.55201 1.4806
                      CHANNELS 6 Xposition Yposition Zposition Zrotation Xrotation Yrotation
                      JOINT rRing2_End
                      {
                        OFFSET -1.4655 -1.808 0.960901
                        CHANNELS 6 Xposition Yposition Zposition Zrotation Xrotation Yrotation
                        End Site
                        {
                          OFFSET -0.0146934 -0.0180999 0.00959832
                        }
                      }
                    }
                  }
                  JOINT rPinky1
                  {
                    OFFSET -4.91411 -1.26899 0.359202
                    CHANNELS 6 Xposition Yposition Zposition Zrotation Xrotation Yrotation
                    JOINT rPinky2
                    {
                      OFFSET -3.14769 -1.68501 0.846199
                      CHANNELS 6 Xposition Yposition Zposition Zrotation Xrotation Yrotation
                      JOINT rPinky2_End
                      {
                        OFFSET -0.805498 -1.585 0.7955
                        CHANNELS 6 Xposition Yposition Zposition Zrotation Xrotation Yrotation
                        End Site
                        {
                          OFFSET -0.00810035 -0.0158035 0.00800029
                        }
                      }
                    }
                  }
                }
              }
            }
          }
        }
      }
    }
  }
  JOINT lThigh
  {
    OFFSET 8.367 -8.2066 0.5982
    CHANNELS 6 Xposition Yposition Zposition Zrotation Xrotation Yrotation
    JOINT lShin
    {
      OFFSET 2.1923 -43.463 -0.4932
      CHANNELS 6 Xposition Yposition Zposition Zrotation Xrotation Yrotation
      JOINT lFoot
      {
        OFFSET 0.733301 -45.8593 -2.6451
        CHANNELS 6 Xposition Yposition Zposition Zrotation Xrotation Yrotation
        End Site
        {
          OFFSET 2.6618 -4.2699 12.3931
        }
      }
    }
  }
  JOINT rThigh
  {
    OFFSET -8.367 -8.2066 0.5982
    CHANNELS 6 Xposition Yposition Zposition Zrotation Xrotation Yrotation
    JOINT rShin
    {
      OFFSET -2.1923 -43.463 -0.4931
      CHANNELS 6 Xposition Yposition Zposition Zrotation Xrotation Yrotation
      JOINT rFoot
      {
        OFFSET -0.733299 -45.8593 -2.6451
        CHANNELS 6 Xposition Yposition Zposition Zrotation Xrotation Yrotation
        End Site
        {
          OFFSET -2.6618 -4.2699 12.3931
        }
      }
    }
  }
}
MOTION
Frames:	4
Frame Time:	0.0333333
-0.432185 102.143 -2.71537 1.38512 -10.3203 -1.19057 4.84854e-007 -1.18599 -1.5018 0.176935 3.15649 0.315697 3.48506e-008 9.964 0.2134 0.337188 6.31389 0.623035 5.84042e-008 13.134 -3.2573 0.337187 6.31389 0.623035 3.39593e-007 20.686 -1.6905 -0.351257 -1.45538 0.814224 -8.19341e-007 7.23801 -0.123699 -0.0422946 -1.4735 -0.84135 1.7069 20.075 5.0056 -1.27259 -0.180882 -1.72145 13.6458 -0.0470174 -4.849 -81.9609 3.08406 -0.0337651 28.3255 -0.97589 2.2888 -10.0211 -16.066 -15.2361 22.1583 -0.529995 10.8316 2.13192 7.10419 4.40867 0.786001 0.111996 2.5817 4.63135e-005 8.41522e-005 3.04509e-005 0.3601 -0.878 4.2331 -8.75371e-005 9.90084e-006 -2.77362e-006 1.8127 -1.21601 2.2227 -9.75582e-005 3.6021e-005 1.75869e-005 0.9571 1.114 1.7695 -8.44835e-016 0 7.95139e-016 4.1246 0.486992 4.1451 -6.79228e-005 -5.90904e-005 6.22401e-005 3.4052 -1.454 2.7682 8.35985e-005 0.000126131 2.69933e-005 1.4531 -1.79499 1.2713 2.13673e-005 5.85515e-006 -5.91862e-005 5.6954 0.209988 2.1184 -1.14967e-005 6.8439e-005 2.25182e-005 3.9766 -1.53999 2.3863 1.18382e-006 -5.61193e-005 8.79157e-005 1.4042 -1.926 1.125 -2.94076e-005 7.26164e-006 -2.66562e-006 2.0956 0.66 -0.3894 -8.44835e-016 0 7.95139e-016 5.0395 -0.0900137 2.4971 -3.75069e-005 2.86504e-005 5.5201e-005 3.7921 -1.55199 1.4806 4.7752e-005 -1.96641e-005 7.86918e-005 1.4655 -1.808 0.9609 -1.9551e-005 6.64633e-006 0.00010821 4.9141 -1.269 0.359101 6.182e-005 1.75934e-005 2.17306e-006 3.1477 -1.685 0.846201 -0.00014132 0.000104413 -4.37782e-005 0.805499 -1.58501 0.7955 1.70055e-005 3.13485e-007 5.7434e-005 -1.7069 20.075 5.0056 -3.3775 -0.0212533 0.886745 -13.6458 -0.0470175 -4.849 81.207 -7.18336 -7.53972 -28.3255 -0.975884 2.2888 6.71917 -11.3093 16.8142 -22.1583 -0.530017 10.8316 -8.26169 35.8581 2.37713 -0.786003 0.112005 2.5817 0.00340227 -0.000434966 0.00492187 -0.360102 -0.877992 4.2331 -1.71106e-005 3.41591e-005 0.000113903 -1.8127 -1.216 2.2227 -3.86776e-005 -1.23498e-005 4.88305e-005 -0.9571 1.114 1.7695 9.93923e-016 0 7.95139e-016 -4.1246 0.487013 4.1451 8.84468e-005 6.25598e-006 7.08638e-005 -3.4052 -1.45401 2.7682 7.60227e-005 3.58873e-005 4.39866e-005 -1.4531 -1.795 1.2713 -8.43284e-005 1.69034e-005 3.12565e-006 -5.6954 0.210004 2.1184 -5.86774e-006 -9.27022e-006 6.87061e-005 -3.9766 -1.54 2.3863 3.81714e-005 7.24566e-005 -6.4482e-006 -1.4042 -1.926 1.125 7.10304e-005 -5.84078e-006 -7.29491e-005 -2.0956 0.66 -0.3894 9.93923e-016 0 7.95139e-016 -5.03951 -0.0899854 2.4971 -3.46613e-005 -2.29171e-005 8.99493e-005 -3.7921 -1.55201 1.4806 -2.76593e-005 3.2484e-005 -9.65788e-005 -1.4655 -1.808 0.960901 4.51002e-005 2.98801e-005 6.1968e-005 -4.91411 -1.26899 0.359202 -2.28755e-005 6.4466e-005 2.75556e-005 -3.1477 -1.68501 0.846199 0.000145906 -4.71592e-005 1.16536e-005 -0.805501 -1.585 0.7955 9.0297e-007 3.24996e-005 -6.58166e-006 8.367 -8.20659 0.598203 -9.70968 0.145069 3.67373 2.1923 -43.463 -0.493202 -0.148547 8.73284 -0.221218 0.733306 -45.8594 -2.6451 8.70815 1.00235 0.367626 -8.36701 -8.2066 0.5982 5.30435 4.23089 14.0598 -2.19266 -43.463 -0.491801 11.727 44.0604 -11.7817 -0.733303 -45.8593 -2.64512 0.403427 -5.76543 -11.1023 
-0.410481 102.593 -2.58868 0.833542 -10.349 0.264433 -1.20178e-009 -1.186 -1.5018 0.240315 3.21569 -0.074145 -9.89517e-009 9.964 0.2134 0.485956 6.43106 -0.162207 1.07651e-007 13.134 -3.2573 0.485957 6.43106 -0.162207 -1.18406e-005 20.686 -1.69048 0.125523 -1.63193 1.19255 -1.83017e-006 7.23801 -0.123699 0.0381372 -1.58123 -0.689311 1.7069 20.075 5.0056 -1.27261 -0.180924 -1.72145 13.6458 -0.0470167 -4.849 -81.5601 3.01936 -0.841062 28.3255 -0.975894 2.2888 -10.464 -16.3733 -15.7482 22.1583 -0.529994 10.8316 2.0807 7.22484 4.19345 0.786006 0.111998 2.5817 -0.0729971 -0.00853154 -0.133992 0.3601 -0.877999 4.2331 -0.0732015 -0.00868168 -0.133968 1.8127 -1.21601 2.2227 -0.081446 -0.00961739 -0.149156 0.9571 1.114 1.7695 9.93923e-017 0 -0 4.12461 0.486994 4.1451 0.204058 -0.0907504 -0.0832559 3.4052 -1.454 2.7682 0.204219 -0.0905443 -0.0833441 1.45309 -1.79499 1.2713 0.204134 -0.0907059 -0.083385 5.69541 0.209989 2.1184 0.200313 -0.0987958 -0.0831118 3.9766 -1.53999 2.3863 0.200396 -0.098944 -0.083082 1.4042 -1.926 1.125 0.200352 -0.0989006 -0.0831692 2.0956 0.66 -0.3894 9.93923e-017 0 -0 5.03951 -0.0900124 2.4971 0.193935 -0.103528 -0.0919718 3.7921 -1.55199 1.4806 0.19407 -0.103649 -0.0919015 1.4655 -1.808 0.960899 0.193983 -0.103588 -0.0918796 4.9141 -1.269 0.359101 0.191774 -0.109652 -0.0895781 3.14771 -1.685 0.846201 0.191692 -0.109575 -0.0897298 0.805497 -1.58501 0.795499 0.191899 -0.109655 -0.0895321 -1.7069 20.075 5.0056 -3.19689 -0.0165859 0.704031 -13.6458 -0.0470077 -4.849 80.4147 -8.06654 -9.42093 -28.3255 -0.975894 2.2888 6.40593 -11.0469 16.4658 -22.1583 -0.530013 10.8316 -7.61984 34.5864 2.07559 -0.786004 0.112005 2.5817 -0.0143859 0.0126169 -0.04402 -0.360107 -0.877993 4.2331 -0.0145321 0.0125866 -0.0439235 -1.8127 -1.216 2.2227 -0.0145705 0.0125562 -0.0440139 -0.9571 1.114 1.7695 4.37326e-015 -3.18055e-015 7.95139e-016 -4.12461 0.487012 4.1451 0.055113 0.0162548 -0.0049544 -3.4052 -1.45401 2.7682 0.288972 0.0963838 -0.0407904 -1.4531 -1.795 1.2713 0.291393 0.0971869 -0.0411131 -5.6954 0.210001 2.1184 0.040758 0.0129429 -0.00408982 -3.9766 -1.54 2.3863 0.317483 0.119426 -0.0439453 -1.4042 -1.926 1.125 0.3078 0.115687 -0.0425856 -2.0956 0.66 -0.3894 4.37326e-015 -3.18055e-015 7.95139e-016 -5.03951 -0.0899879 2.4971 0.0426479 0.0177918 -0.00767177 -3.7921 -1.55201 1.4806 0.310963 0.129016 -0.0565563 -1.4655 -1.808 0.960901 0.311791 0.129296 -0.0564589 -4.91411 -1.26899 0.359203 0.0208862 0.00919899 -0.0034247 -3.14769 -1.68501 0.846198 0.318965 0.142007 -0.0538378 -0.805502 -1.585 0.7955 0.338368 0.150837 -0.0571968 8.36701 -8.2066 0.598202 -9.07345 3.44499 3.8466 2.1923 -43.463 -0.493202 -0.0777839 6.45876 -0.0307568 0.733296 -45.8593 -2.6451 9.15712 0.221708 -1.45012 -8.36701 -8.2066 0.598203 5.41231 -1.62619 14.5617 -2.19242 -43.4631 -0.492688 12.9453 46.1679 -12.6012 -0.733299 -45.8593 -2.64512 -3.75404 -6.20403 -11.4885 
-0.271645 103.045 -2.36962 -0.342406 -9.93679 1.7901 -2.43632e-010 -1.186 -1.5018 0.313706 3.21976 -0.48988 -1.52536e-008 9.964 0.2134 0.65658 6.43667 -0.999824 -1.62012e-008 13.134 -3.2573 0.65658 6.43667 -0.999823 2.07155e-006 20.6864 -1.69053 0.816598 -1.75026 1.34987 -3.2269e-006 7.238 -0.123693 0.70824 -1.91037 -0.197844 1.7069 20.075 5.0056 -1.2726 -0.180872 -1.72145 13.6458 -0.047007 -4.84901 -80.5752 2.82067 -1.98916 28.3255 -0.975898 2.2888 -11.4833 -16.3527 -17.0107 22.1583 -0.529982 10.8316 1.94565 7.54552 3.62421 0.786001 0.111997 2.5817 -0.276585 -0.0319438 -0.50689 0.360099 -0.878 4.2331 -0.276726 -0.0319746 -0.506995 1.8127 -1.21601 2.2227 -0.307973 -0.0353805 -0.56425 0.9571 1.114 1.7695 1.98785e-016 0 -1.59028e-015 4.1246 0.486991 4.1451 0.771381 -0.344617 -0.313426 3.4052 -1.45401 2.7682 0.771551 -0.344494 -0.31356 1.4531 -1.79499 1.2713 0.77139 -0.34456 -0.313559 5.6954 0.209987 2.1184 0.757055 -0.375415 -0.312604 3.9766 -1.53999 2.3863 0.757155 -0.375593 -0.312587 1.4042 -1.926 1.125 0.757168 -0.375558 -0.312713 2.0956 0.66 -0.3894 1.98785e-016 0 -1.59028e-015 5.0395 -0.090013 2.4971 0.732827 -0.393329 -0.346112 3.7921 -1.55199 1.4806 0.733015 -0.393536 -0.346075 1.4655 -1.808 0.9609 0.732942 -0.393459 -0.346138 4.9141 -1.269 0.359101 0.724395 -0.416216 -0.336905 3.1477 -1.685 0.8462 0.724508 -0.416293 -0.337124 0.805495 -1.58501 0.7955 0.713169 -0.383277 -0.322441 -1.7069 20.075 5.0056 -2.7367 -0.00539984 0.241595 -13.6458 -0.0470138 -4.84901 79.7364 -8.99632 -11.3593 -28.3255 -0.975901 2.2888 5.63342 -10.6526 15.6112 -22.1583 -0.530014 10.8316 -6.0812 31.3441 1.41329 -0.785999 0.112006 2.5817 -0.0548862 0.0479138 -0.167259 -0.36011 -0.877993 4.2331 -0.054967 0.0478211 -0.167156 -1.8127 -1.216 2.2227 -0.0550684 0.0477609 -0.167204 -0.9571 1.114 1.7695 -1.98785e-016 3.18055e-015 -0 -4.1246 0.487011 4.1451 0.208987 0.0617256 -0.01918 -3.4052 -1.45401 2.7682 1.09771 0.364825 -0.157486 -1.4531 -1.795 1.2713 1.10705 0.36787 -0.158765 -5.69541 0.209998 2.1184 0.154855 0.0491147 -0.0158229 -3.9766 -1.54 2.3863 1.20529 0.451837 -0.170275 -1.4042 -1.926 1.125 1.16908 0.438096 -0.164912 -2.0956 0.66 -0.3894 -1.98785e-016 3.18055e-015 -0 -5.03951 -0.0899892 2.4971 0.161798 0.0675862 -0.0293422 -3.7921 -1.55201 1.4806 1.18156 0.488053 -0.218123 -1.4655 -1.808 0.9609 1.18457 0.489236 -0.218453 -4.9141 -1.26899 0.359203 0.0795049 0.0346779 -0.0130438 -3.14769 -1.68501 0.846198 1.2114 0.537846 -0.208742 -0.8055 -1.585 0.7955 1.28582 0.570887 -0.221972 8.367 -8.2066 0.598198 -7.51344 6.39221 3.76749 2.1923 -43.463 -0.4932 -0.0414371 3.77718 -0.0229297 0.733299 -45.8593 -2.6451 9.28287 -0.602608 -3.05772 -8.36699 -8.20663 0.598196 6.86757 -6.5543 16.147 -2.1926 -43.463 -0.492177 12.2612 44.13 -10.2482 -0.7333 -45.8593 -2.6451 -6.16156 -5.76079 -12.2169 
-0.210549 103.373 -2.16126 -0.928002 -9.75286 2.97056 -2.9729e-007 -1.186 -1.5018 0.379382 3.28424 -0.837636 -4.49384e-008 9.964 0.2134 0.808902 6.56255 -1.70127 1.18398e-009 13.134 -3.2573 0.808901 6.56255 -1.70127 5.94494e-007 20.686 -1.6905 1.09491 -2.08683 1.31644 -1.45509e-006 7.23801 -0.1237 1.36972 -2.0735 0.442161 1.7069 20.075 5.0056 -1.27259 -0.180843 -1.72146 13.6458 -0.0470143 -4.84901 -80.1311 2.855 -3.32802 28.3255 -0.975885 2.2888 -12.901 -16.2753 -18.8044 22.1583 -0.529982 10.8316 1.75628 8.0024 2.8212 0.786007 0.111996 2.5817 -0.585754 -0.0647191 -1.07307 0.3601 -0.877999 4.2331 -0.585881 -0.0647759 -1.07314 1.8127 -1.21601 2.2227 -0.652094 -0.0713427 -1.19445 0.9571 1.114 1.7695 -2.98177e-016 0 -4.77083e-015 4.1246 0.486994 4.1451 1.63039 -0.734232 -0.657958 3.4052 -1.454 2.7682 1.63068 -0.734209 -0.6581 1.4531 -1.79499 1.2713 1.63035 -0.734216 -0.658059 5.6954 0.209988 2.1184 1.59982 -0.799445 -0.655765 3.9766 -1.53999 2.3863 1.60011 -0.799737 -0.655838 1.4042 -1.926 1.125 1.6001 -0.799681 -0.655943 2.0956 0.66 -0.3894 -2.98177e-016 0 -4.77083e-015 5.0395 -0.0900118 2.4971 1.54819 -0.837687 -0.726628 3.7921 -1.55199 1.4806 1.54862 -0.838003 -0.726645 1.4655 -1.808 0.9609 1.54853 -0.837946 -0.726712 4.91411 -1.269 0.3591 1.5302 -0.885894 -0.706834 3.1477 -1.685 0.8462 1.5306 -0.886134 -0.70728 0.805496 -1.58501 0.795501 1.53076 -0.88621 -0.706998 -1.7069 20.075 5.0056 -2.12504 0.00745641 -0.366075 -13.6458 -0.0470166 -4.849 78.2019 -10.0346 -13.2604 -28.3255 -0.975899 2.2888 4.60737 -10.1188 14.5068 -22.1583 -0.530014 10.8316 -4.21891 27.0346 0.737813 -0.785999 0.112005 2.5817 -0.1167 0.10194 -0.355633 -0.360103 -0.877993 4.2331 -0.116784 0.101833 -0.355506 -1.8127 -1.216 2.2227 -0.116846 0.101783 -0.355551 -0.9571 1.114 1.7695 -1.68967e-015 0 7.95139e-016 -4.1246 0.487014 4.1451 0.444207 0.131108 -0.0411999 -3.4052 -1.45401 2.7682 2.33538 0.772034 -0.343265 -1.4531 -1.79499 1.2713 2.35537 0.778433 -0.346029 -5.69541 0.210001 2.1184 0.329303 0.104405 -0.0339233 -3.9766 -1.54 2.3863 2.56468 0.956309 -0.373397 -1.4042 -1.926 1.125 2.4875 0.927391 -0.361351 -2.0956 0.66 -0.3894 -1.68967e-015 0 7.95139e-016 -5.03951 -0.0899865 2.4971 0.344129 0.143678 -0.0627811 -3.7921 -1.55201 1.4806 2.51479 1.03221 -0.475682 -1.4655 -1.808 0.960901 2.5212 1.03472 -0.476684 -4.91411 -1.26899 0.359203 0.169094 0.0736714 -0.0278474 -3.14769 -1.68501 0.846198 2.57828 1.13824 -0.457457 -0.805501 -1.585 0.7955 2.73703 1.20772 -0.48731 8.36701 -8.20661 0.598199 -6.69655 9.99183 2.96794 2.1923 -43.463 -0.4932 -0.000217361 0.291885 -0.0170877 0.733302 -45.8593 -2.6451 10.5854 -0.736005 -3.82221 -8.36701 -8.2066 0.598202 7.75819 -9.80433 17.6881 -2.19248 -43.463 -0.492606 9.63705 38.1392 -7.65283 -0.733301 -45.8593 -2.64511 -6.12907 -4.85822 -12.872 
